<mxfile host="app.diagrams.net" modified="2021-07-22T08:17:06.111Z" agent="5.0 (Windows)" etag="kavUWtq1k-y91hng53ri" version="14.9.1" type="github">
  <diagram id="W6NuQuG2MCASkbWi6TPT" name="Page-1">
    <mxGraphModel dx="1185" dy="627" grid="1" gridSize="10" guides="1" tooltips="1" connect="1" arrows="1" fold="1" page="1" pageScale="1" pageWidth="827" pageHeight="1169" math="0" shadow="0">
      <root>
        <mxCell id="0" />
        <mxCell id="1" parent="0" />
        <mxCell id="F1IMvj6x4gEuCopA1iZd-33" value="" style="rounded=0;whiteSpace=wrap;html=1;" vertex="1" parent="1">
          <mxGeometry x="200" y="40" width="480" height="560" as="geometry" />
        </mxCell>
        <mxCell id="F1IMvj6x4gEuCopA1iZd-7" value="參賽隊伍" style="shape=umlActor;verticalLabelPosition=bottom;verticalAlign=top;html=1;outlineConnect=0;" vertex="1" parent="1">
          <mxGeometry x="80" y="160" width="80" height="120" as="geometry" />
        </mxCell>
        <mxCell id="F1IMvj6x4gEuCopA1iZd-10" value="評審" style="shape=umlActor;verticalLabelPosition=bottom;verticalAlign=top;html=1;outlineConnect=0;" vertex="1" parent="1">
          <mxGeometry x="720" y="280" width="80" height="120" as="geometry" />
        </mxCell>
        <mxCell id="F1IMvj6x4gEuCopA1iZd-11" value="&lt;font style=&quot;font-size: 15px&quot;&gt;評分管理系統&lt;/font&gt;" style="text;html=1;strokeColor=none;fillColor=none;align=center;verticalAlign=middle;whiteSpace=wrap;rounded=0;" vertex="1" parent="1">
          <mxGeometry x="380" y="40" width="120" height="40" as="geometry" />
        </mxCell>
        <mxCell id="F1IMvj6x4gEuCopA1iZd-13" value="&lt;div style=&quot;font-size: 16px&quot;&gt;&lt;font style=&quot;font-size: 16px&quot;&gt;登錄系統&lt;/font&gt;&lt;/div&gt;&lt;div style=&quot;font-size: 16px&quot;&gt;&lt;font style=&quot;font-size: 16px&quot;&gt;(身分辨別)&lt;/font&gt;&lt;/div&gt;" style="ellipse;whiteSpace=wrap;html=1;" vertex="1" parent="1">
          <mxGeometry x="385" y="100" width="110" height="80" as="geometry" />
        </mxCell>
        <mxCell id="F1IMvj6x4gEuCopA1iZd-14" value="" style="endArrow=none;html=1;entryX=0;entryY=0.5;entryDx=0;entryDy=0;" edge="1" parent="1" source="F1IMvj6x4gEuCopA1iZd-7" target="F1IMvj6x4gEuCopA1iZd-13">
          <mxGeometry width="50" height="50" relative="1" as="geometry">
            <mxPoint x="480" y="350" as="sourcePoint" />
            <mxPoint x="530" y="300" as="targetPoint" />
          </mxGeometry>
        </mxCell>
        <mxCell id="F1IMvj6x4gEuCopA1iZd-15" value="&lt;font style=&quot;font-size: 16px&quot;&gt;評分系統&lt;/font&gt;" style="ellipse;whiteSpace=wrap;html=1;" vertex="1" parent="1">
          <mxGeometry x="540" y="280" width="110" height="80" as="geometry" />
        </mxCell>
        <mxCell id="F1IMvj6x4gEuCopA1iZd-16" value="&lt;font style=&quot;font-size: 16px&quot;&gt;查詢成績排名&lt;/font&gt;" style="ellipse;whiteSpace=wrap;html=1;" vertex="1" parent="1">
          <mxGeometry x="260" y="440" width="110" height="80" as="geometry" />
        </mxCell>
        <mxCell id="F1IMvj6x4gEuCopA1iZd-17" value="" style="endArrow=none;html=1;entryX=1;entryY=0.5;entryDx=0;entryDy=0;" edge="1" parent="1" source="F1IMvj6x4gEuCopA1iZd-10" target="F1IMvj6x4gEuCopA1iZd-13">
          <mxGeometry width="50" height="50" relative="1" as="geometry">
            <mxPoint x="170" y="196.66666666666663" as="sourcePoint" />
            <mxPoint x="250" y="130" as="targetPoint" />
          </mxGeometry>
        </mxCell>
        <mxCell id="F1IMvj6x4gEuCopA1iZd-18" value="" style="endArrow=none;html=1;" edge="1" parent="1" source="F1IMvj6x4gEuCopA1iZd-10" target="F1IMvj6x4gEuCopA1iZd-15">
          <mxGeometry width="50" height="50" relative="1" as="geometry">
            <mxPoint x="720" y="210" as="sourcePoint" />
            <mxPoint x="360" y="130" as="targetPoint" />
          </mxGeometry>
        </mxCell>
        <mxCell id="F1IMvj6x4gEuCopA1iZd-22" value="&lt;div&gt;&amp;lt;&amp;lt;service&amp;gt;&amp;gt;&lt;br&gt;&lt;/div&gt;&lt;div&gt;Authentication(TBD)&lt;/div&gt;" style="shape=umlActor;verticalLabelPosition=bottom;verticalAlign=top;html=1;outlineConnect=0;" vertex="1" parent="1">
          <mxGeometry x="920" y="80" width="40" height="60" as="geometry" />
        </mxCell>
        <mxCell id="F1IMvj6x4gEuCopA1iZd-25" value="&lt;font style=&quot;font-size: 16px&quot;&gt;填寫分數&lt;br&gt;&lt;/font&gt;" style="ellipse;whiteSpace=wrap;html=1;" vertex="1" parent="1">
          <mxGeometry x="400" y="240" width="80" height="60" as="geometry" />
        </mxCell>
        <mxCell id="F1IMvj6x4gEuCopA1iZd-26" value="&lt;div&gt;&lt;font style=&quot;font-size: 16px&quot;&gt;修改評分&lt;/font&gt;&lt;/div&gt;" style="ellipse;whiteSpace=wrap;html=1;" vertex="1" parent="1">
          <mxGeometry x="400" y="340" width="80" height="60" as="geometry" />
        </mxCell>
        <mxCell id="F1IMvj6x4gEuCopA1iZd-27" value="&lt;font color=&quot;#FF0000&quot;&gt;&amp;lt;extend&amp;gt;&lt;/font&gt;" style="endArrow=classic;html=1;entryX=1;entryY=0.5;entryDx=0;entryDy=0;exitX=0.023;exitY=0.694;exitDx=0;exitDy=0;exitPerimeter=0;dashed=1;strokeWidth=2;" edge="1" parent="1" source="F1IMvj6x4gEuCopA1iZd-15" target="F1IMvj6x4gEuCopA1iZd-26">
          <mxGeometry x="0.0087" y="12" width="50" height="50" relative="1" as="geometry">
            <mxPoint x="540" y="320" as="sourcePoint" />
            <mxPoint x="490" y="360" as="targetPoint" />
            <mxPoint as="offset" />
          </mxGeometry>
        </mxCell>
        <mxCell id="F1IMvj6x4gEuCopA1iZd-29" value="&lt;font color=&quot;#FF0000&quot;&gt;&amp;lt;extend&amp;gt;&lt;/font&gt;" style="endArrow=classic;html=1;entryX=1;entryY=0.5;entryDx=0;entryDy=0;exitX=0.023;exitY=0.34;exitDx=0;exitDy=0;exitPerimeter=0;dashed=1;strokeWidth=2;" edge="1" parent="1" source="F1IMvj6x4gEuCopA1iZd-15" target="F1IMvj6x4gEuCopA1iZd-25">
          <mxGeometry x="-0.0855" y="-12" width="50" height="50" relative="1" as="geometry">
            <mxPoint x="552.5300000000002" y="345.52" as="sourcePoint" />
            <mxPoint x="436.00000000000455" y="369.9999999999999" as="targetPoint" />
            <mxPoint as="offset" />
          </mxGeometry>
        </mxCell>
        <mxCell id="F1IMvj6x4gEuCopA1iZd-30" value="&lt;font style=&quot;font-size: 16px&quot;&gt;評審註冊&lt;br&gt;&lt;/font&gt;" style="ellipse;whiteSpace=wrap;html=1;" vertex="1" parent="1">
          <mxGeometry x="10" y="460" width="120" height="80" as="geometry" />
        </mxCell>
        <mxCell id="F1IMvj6x4gEuCopA1iZd-31" value="&lt;font style=&quot;font-size: 16px&quot;&gt;參賽隊伍註冊&lt;br&gt;&lt;/font&gt;" style="ellipse;whiteSpace=wrap;html=1;" vertex="1" parent="1">
          <mxGeometry x="10" y="550" width="120" height="80" as="geometry" />
        </mxCell>
      </root>
    </mxGraphModel>
  </diagram>
</mxfile>
